HIERARCHY
ROOT Hips
{
	OFFSET 0.000000 0.000000 0.000000
	CHANNELS 6 Xposition Yposition Zposition Zrotation Yrotation Xrotation 
	JOINT LHipJoint
	{
		OFFSET 0.000000 0.000000 0.000000
		CHANNELS 3 Zrotation Yrotation Xrotation
		JOINT LeftUpLeg
		{
			OFFSET 1.363060 -1.794630 0.839290
			CHANNELS 3 Zrotation Yrotation Xrotation
			JOINT LeftLeg
			{
				OFFSET 2.448110 -6.726130 0.000000
				CHANNELS 3 Zrotation Yrotation Xrotation
				JOINT LeftFoot
				{
					OFFSET 2.562200 -7.039590 0.000000
					CHANNELS 3 Zrotation Yrotation Xrotation
					JOINT LeftToeBase
					{
						OFFSET 0.157640 -0.433110 2.322550
						CHANNELS 3 Zrotation Yrotation Xrotation
						End Site
						{
							OFFSET 0.000000 0.000000 0.000000
						}
					}
				}
			}
		}
	}
	JOINT RHipJoint
	{
		OFFSET 0.000000 0.000000 0.000000
		CHANNELS 3 Zrotation Yrotation Xrotation
		JOINT RightUpLeg
		{
			OFFSET -1.305520 -1.794630 0.839290
			CHANNELS 3 Zrotation Yrotation Xrotation
			JOINT RightLeg
			{
				OFFSET -2.542530 -6.985550 0.000000
				CHANNELS 3 Zrotation Yrotation Xrotation
				JOINT RightFoot
				{
					OFFSET -2.568260 -7.056230 0.000000
					CHANNELS 3 Zrotation Yrotation Xrotation
					JOINT RightToeBase
					{
						OFFSET -0.164730 -0.452590 2.363150
						CHANNELS 3 Zrotation Yrotation Xrotation
						End Site
						{
							OFFSET 0.000000 0.000000 0.000000
						}
					}
				}
			}
		}
	}
	JOINT LowerBack
	{
		OFFSET 0.000000 0.000000 0.000000
		CHANNELS 3 Zrotation Yrotation Xrotation
		JOINT Spine
		{
			OFFSET 0.028270 2.035590 -0.193380
			CHANNELS 3 Zrotation Yrotation Xrotation
			JOINT Spine1
			{
				OFFSET 0.056720 2.048850 -0.042750
				CHANNELS 3 Zrotation Yrotation Xrotation
				JOINT Neck
				{
					OFFSET 0.000000 0.000000 0.000000
					CHANNELS 3 Zrotation Yrotation Xrotation
					JOINT Neck1
					{
						OFFSET -0.054170 1.746240 0.172020
						CHANNELS 3 Zrotation Yrotation Xrotation
						JOINT Head
						{
							OFFSET 0.104070 1.761360 -0.123970
							CHANNELS 3 Zrotation Yrotation Xrotation
							End Site
							{
								OFFSET 0.000000 0.000000 0.000000
							}
						}
					}
				}
				JOINT LeftShoulder
				{
					OFFSET 0.000000 0.000000 0.000000
					CHANNELS 3 Zrotation Yrotation Xrotation
					JOINT LeftArm
					{
						OFFSET 3.362410 1.200890 -0.311210
						CHANNELS 3 Zrotation Yrotation Xrotation
						JOINT LeftForeArm
						{
							OFFSET 4.983000 -0.000000 -0.000000
							CHANNELS 3 Zrotation Yrotation Xrotation
							JOINT LeftHand
							{
								OFFSET 3.483560 -0.000000 -0.000000
								CHANNELS 3 Zrotation Yrotation Xrotation
								JOINT LeftFingerBase
								{
									OFFSET 0.000000 0.000000 0.000000
									CHANNELS 3 Zrotation Yrotation Xrotation
									JOINT LeftHandIndex1
									{
										OFFSET 0.715260 -0.000000 -0.000000
										CHANNELS 3 Zrotation Yrotation Xrotation
										End Site
										{
											OFFSET 0.000000 0.000000 0.000000
										}
									}
								}
								JOINT LThumb
								{
									OFFSET 0.000000 0.000000 0.000000
									CHANNELS 3 Zrotation Yrotation Xrotation
									End Site
									{
										OFFSET 0.000000 0.000000 0.000000
									}
								}
							}
						}
					}
				}
				JOINT RightShoulder
				{
					OFFSET 0.000000 0.000000 0.000000
					CHANNELS 3 Zrotation Yrotation Xrotation
					JOINT RightArm
					{
						OFFSET -3.136600 1.374050 -0.404650
						CHANNELS 3 Zrotation Yrotation Xrotation
						JOINT RightForeArm
						{
							OFFSET -5.241900 -0.000000 -0.000000
							CHANNELS 3 Zrotation Yrotation Xrotation
							JOINT RightHand
							{
								OFFSET -3.444170 -0.000000 -0.000000
								CHANNELS 3 Zrotation Yrotation Xrotation
								JOINT RightFingerBase
								{
									OFFSET 0.000000 0.000000 0.000000
									CHANNELS 3 Zrotation Yrotation Xrotation
									JOINT RightHandIndex1
									{
										OFFSET -0.622530 -0.000000 -0.000000
										CHANNELS 3 Zrotation Yrotation Xrotation
										End Site
										{
											OFFSET 0.000000 0.000000 0.000000
										}
									}
								}
								JOINT RThumb
								{
									OFFSET 0.000000 0.000000 0.000000
									CHANNELS 3 Zrotation Yrotation Xrotation
									End Site
									{
										OFFSET 0.000000 0.000000 0.000000
									}
								}
							}
						}
					}
				}
			}
		}
	}
}
MOTION
Frames: 10
Frame Time: 0.008333
3.513780 17.340510 1.313144 177.766535 -70.051941 -165.702163 -11.480529 3.293206 0.282336 -10.727314 21.893643 -13.007309 -2.690000 -1.301726 -0.532803 1.887607 13.432007 -2.670718 1.281599 -0.000000 -33.724601 9.615306 -1.890845 4.529589 -2.030567 3.258302 -15.388445 2.332608 1.072109 0.314467 0.797458 3.395317 8.315914 0.266300 0.000000 -70.285901 -0.291759 -3.632679 -6.812892 -0.544551 -3.694024 -4.129621 -6.357952 -3.487194 -1.708644 9.652538 -13.221432 0.442213 -3.752761 -0.377047 2.282135 0.000000 0.000000 0.000000 17.587971 -0.425867 -6.129060 -74.716197 -47.968728 -0.037135 177.610821 -53.509369 179.741363 13.587092 -8.316632 -1.157588 -0.188997 1.264464 -0.000000 0.000000 0.000000 0.000000 0.000000 0.000000 0.000000 5.615304 -14.305336 -4.460443 84.914870 41.058114 25.520941 -177.965454 63.476283 179.721633 -21.156443 13.450328 -2.764365 0.346023 -1.037272 -0.000000 0.000000 0.000000 0.000000 0.000000 0.000000 0.000000 
3.508620 17.340617 1.321846 177.350776 -70.355256 -164.971406 -11.439021 3.290828 0.405145 -11.052949 21.370389 -13.535411 -2.702443 -1.307334 -0.269350 1.912635 13.491495 -2.788135 1.271800 0.000001 -33.619600 9.632696 -1.865293 4.552210 -2.179575 3.108845 -15.919557 2.301462 1.064640 0.658709 0.763528 3.167875 8.124123 0.196600 -0.000000 -70.351399 -0.367268 -3.721717 -6.962170 -0.562331 -3.777393 -4.132181 -6.418922 -3.568883 -1.621159 9.917434 -13.513598 0.220853 -3.798990 -0.377656 2.222234 0.000000 0.000000 0.000000 17.858418 -0.571038 -6.203453 -74.744224 -48.229151 -0.069216 177.617524 -53.763532 179.741593 13.565101 -8.316140 -1.155425 -0.186618 1.264500 -0.000000 0.000000 0.000000 0.000000 0.000000 0.000000 0.000000 6.182136 -14.615178 -4.306165 84.686051 40.505071 25.563266 -178.112012 63.932273 179.728382 -20.911175 13.361238 -2.713181 0.345873 -1.027793 -0.000000 0.000000 0.000000 0.000000 0.000000 0.000000 0.000000 
3.503969 17.340456 1.331697 176.857943 -70.746369 -164.165506 -11.394284 3.285128 0.537059 -11.373143 20.755961 -14.052084 -2.710449 -1.312084 0.003747 1.938772 13.551319 -2.904942 1.263100 -0.000001 -33.521600 9.653556 -1.834445 4.556461 -2.335206 2.906473 -16.428216 2.265651 1.055610 1.014319 0.721836 2.898083 7.909981 0.116100 0.000000 -70.412200 -0.438367 -3.813732 -7.093240 -0.579176 -3.863628 -4.133010 -6.480493 -3.653894 -1.542043 10.180566 -13.802415 -0.010018 -3.839487 -0.377804 2.159548 0.000000 0.000000 0.000000 18.096210 -0.738598 -6.274371 -74.735413 -48.558403 -0.092973 177.628036 -54.059410 179.741783 13.545178 -8.320557 -1.154066 -0.184153 1.264529 -0.000000 0.000000 0.000000 0.000000 0.000000 0.000000 0.000000 6.739023 -14.917819 -4.133186 84.404022 39.875192 25.562437 -178.258285 64.425998 179.735281 -20.654077 13.289481 -2.664001 0.344921 -1.018058 -0.000000 0.000000 0.000000 0.000000 0.000000 0.000000 0.000000 
3.499403 17.339937 1.342732 176.278826 -71.241697 -163.265022 -11.346952 3.275972 0.681575 -11.687444 20.047385 -14.580700 -2.715749 -1.315185 0.307732 1.964105 13.594164 -3.030540 1.251500 -0.000000 -33.427200 9.676381 -1.799874 4.545919 -2.495001 2.653721 -16.914376 2.225251 1.047029 1.370223 0.669849 2.566248 7.675669 0.019900 0.000000 -70.459600 -0.500330 -3.908759 -7.214108 -0.593809 -3.953385 -4.134141 -6.541794 -3.743200 -1.472649 10.436150 -14.084250 -0.249865 -3.872888 -0.377399 2.094322 0.000000 0.000000 0.000000 18.293868 -0.929673 -6.341341 -74.699202 -48.960693 -0.093412 177.643828 -54.405326 179.741988 13.524337 -8.330680 -1.153206 -0.181498 1.264550 -0.000000 0.000000 0.000000 0.000000 0.000000 0.000000 0.000000 7.274871 -15.209699 -3.941423 84.063039 39.157323 25.505725 -178.400833 64.960812 179.742200 -20.398343 13.226136 -2.616825 0.343278 -1.007696 -0.000000 0.000000 0.000000 0.000000 0.000000 0.000000 0.000000 
3.495221 17.339064 1.355170 175.596482 -71.851460 -162.259713 -11.297836 3.262376 0.837066 -11.987908 19.245869 -15.116428 -2.718263 -1.315949 0.644234 1.987090 13.610735 -3.164472 1.235900 -0.000000 -33.335600 9.700656 -1.761282 4.517825 -2.655324 2.347436 -17.363083 2.180461 1.039371 1.716778 0.606329 2.166497 7.423870 -0.092901 0.000000 -70.489700 -0.550385 -4.005739 -7.319360 -0.605594 -4.045814 -4.135424 -6.601860 -3.836192 -1.416139 10.681397 -14.357466 -0.497107 -3.899061 -0.376428 2.026951 0.000000 0.000000 0.000000 18.448776 -1.144351 -6.404869 -74.653671 -49.438824 -0.054459 177.664856 -54.809108 179.742209 13.499499 -8.354160 -1.153647 -0.178409 1.264809 -0.000000 0.000000 0.000000 0.000000 0.000000 0.000000 0.000000 7.788403 -15.488773 -3.731764 83.657329 38.351730 25.382386 -178.537918 65.540300 179.748985 -20.154316 13.185378 -2.575457 0.340948 -0.996958 -0.000000 0.000000 0.000000 0.000000 0.000000 0.000000 0.000000 
3.491793 17.337790 1.369279 174.780018 -72.582252 -161.132636 -11.247496 3.242952 0.998179 -12.262875 18.347015 -15.621516 -2.715454 -1.314430 0.992335 2.007703 13.608048 -3.295014 1.219600 0.000000 -33.248600 9.727547 -1.716882 4.462643 -2.816628 1.978127 -17.742861 2.130727 1.031268 2.047465 0.530864 1.703417 7.156291 -0.219900 -0.000000 -70.500400 -0.591597 -4.103170 -7.390648 -0.615418 -4.138891 -4.134360 -6.660500 -3.930925 -1.376699 10.916202 -14.624233 -0.749617 -3.918859 -0.374940 1.957852 0.000000 0.000000 0.000000 18.561968 -1.385329 -6.465523 -74.614555 -49.996729 0.039259 177.689854 -55.279812 179.742456 13.467659 -8.394833 -1.155593 -0.174585 1.265367 -0.000000 0.000000 0.000000 0.000000 0.000000 0.000000 0.000000 8.287472 -15.755879 -3.504548 83.182420 37.466907 25.185283 -178.668916 66.176793 179.755519 -19.935928 13.165282 -2.541296 0.338090 -0.985588 -0.000000 0.000000 0.000000 0.000000 0.000000 0.000000 0.000000 
3.489085 17.336152 1.385012 173.790707 -73.444281 -159.844244 -11.197205 3.217158 1.166049 -12.510050 17.353154 -16.103294 -2.708235 -1.310434 1.355640 2.023808 13.573429 -3.421275 1.201700 -0.000000 -33.167300 9.755436 -1.667901 4.381586 -2.975979 1.546578 -18.046078 2.076476 1.024126 2.349403 0.441739 1.166465 6.876039 -0.363000 -0.000001 -70.483300 -0.621067 -4.201043 -7.431316 -0.622401 -4.232976 -4.132025 -6.716737 -4.028039 -1.355352 11.137857 -14.884417 -1.006462 -3.932749 -0.372965 1.887331 0.000000 0.000000 0.000000 18.634655 -1.649870 -6.524162 -74.607026 -50.629131 0.207081 177.719139 -55.823772 179.742754 13.426634 -8.455721 -1.159042 -0.169908 1.266297 -0.000000 0.000000 0.000000 0.000000 0.000000 0.000000 0.000000 8.771847 -16.011055 -3.262860 82.641345 36.502843 24.908488 -178.792221 66.875831 179.761719 -19.753965 13.161228 -2.514542 0.334825 -0.973309 -0.000000 0.000000 0.000000 0.000000 0.000000 0.000000 0.000000 
3.487087 17.334183 1.402361 172.566749 -74.444565 -158.335727 -11.148542 3.184230 1.340438 -12.725929 16.267255 -16.556656 -2.696805 -1.304207 1.728133 2.033444 13.498737 -3.537324 1.182700 -0.000000 -33.093999 9.783005 -1.615485 4.273667 -3.131652 1.049888 -18.260125 2.018093 1.018535 2.611481 0.337900 0.551920 6.586222 -0.522400 -0.000001 -70.430900 -0.638152 -4.299571 -7.440851 -0.626204 -4.328361 -4.128722 -6.769985 -4.128036 -1.353174 11.344781 -15.138138 -1.265921 -3.941688 -0.370575 1.815866 0.000000 0.000000 0.000000 18.669551 -1.934826 -6.581413 -74.656386 -51.329190 0.468101 177.752753 -56.446705 179.743104 13.376159 -8.538026 -1.164190 -0.164334 1.267597 -0.000000 0.000000 0.000000 0.000000 0.000000 0.000000 0.000000 9.244434 -16.254414 -3.010304 82.041152 35.463820 24.550501 -178.907080 67.643315 179.767543 -19.615952 13.168172 -2.495196 0.331234 -0.959869 -0.000000 0.000000 0.000000 0.000000 0.000000 0.000000 0.000000 
3.485573 17.331882 1.421207 171.014759 -75.588434 -156.512767 -11.103828 3.143341 1.522073 -12.908679 15.095289 -16.981740 -2.681940 -1.296314 2.105348 2.034057 13.372556 -3.637102 1.162800 0.000001 -33.033000 9.808043 -1.562173 4.139889 -3.280908 0.485770 -18.376764 1.956262 1.015240 2.822359 0.218260 -0.144273 6.290640 -0.698300 0.000001 -70.335900 -0.641260 -4.399521 -7.422806 -0.626236 -4.426017 -4.125226 -6.819818 -4.232081 -1.369761 11.534690 -15.384470 -1.525886 -3.946758 -0.367863 1.744080 0.000000 0.000000 0.000000 18.669711 -2.234474 -6.637796 -74.788375 -52.087233 0.841100 177.791270 -57.149946 179.743500 13.317524 -8.640907 -1.170939 -0.157982 1.269208 -0.000000 0.000000 0.000000 0.000000 0.000000 0.000000 0.000000 9.706312 -16.485766 -2.751497 81.393795 34.353243 24.111714 -179.012943 68.483092 179.772984 -19.525882 13.180725 -2.482757 0.327338 -0.945053 -0.000000 0.000000 0.000000 0.000000 0.000000 0.000000 0.000000 
3.484732 17.329322 1.441269 168.959267 -76.875178 -154.209894 -11.064614 3.091825 1.709338 -13.057770 13.835364 -17.352543 -2.662535 -1.288773 2.462208 2.024652 13.199565 -3.704878 1.146200 0.000000 -32.991900 9.829698 -1.509945 3.977072 -3.427704 -0.153523 -18.380012 1.890811 1.012877 2.974543 0.082668 -0.915658 5.990478 -0.887600 0.000000 -70.196000 -0.637479 -4.502987 -7.372982 -0.623713 -4.527249 -4.120750 -6.866542 -4.341524 -1.405679 11.708648 -15.620996 -1.782671 -3.949595 -0.364979 1.672937 0.000000 0.000000 0.000000 18.641265 -2.544207 -6.693740 -75.025807 -52.892179 1.343084 177.834589 -57.937204 179.743941 13.251483 -8.763263 -1.179287 -0.150893 1.271034 -0.000000 0.000000 0.000000 0.000000 0.000000 0.000000 0.000000 10.164449 -16.703348 -2.490562 80.712365 33.179276 23.593939 -179.110174 69.396840 179.778061 -19.484541 13.200057 -2.477425 0.323151 -0.928891 -0.000000 0.000000 0.000000 0.000000 0.000000 0.000000 0.000000 
